<?xml version="1.0" encoding="UTF-8"?><!DOCTYPE svg PUBLIC "-//W3C//DTD SVG 1.0//EN" "http://www.w3.org/TR/2001/REC-SVG-20010904/DTD/svg10.dtd" []><svg xmlns="http://www.w3.org/2000/svg" xmlns:xlink="http://www.w3.org/1999/xlink" data-name="Layer 1" height="228" viewBox="0 0 271.2 228.3" width="271"><path d="M119.14,71.44c.72-.58.13-2.07-.76-1.28-2.76,2.48-6.24,4.33-9.62,5.83-4.86.92-9.71,1.91-14.54,3.01-9.44,1.43-13.86-9.11-15.73-16.69-.81-3.71-.16-7.33.53-10.95.45.13,1.02.15,1.62.14.06.01.13.02.18.02,2.05,0,3.55-3.76,1.03-4.24-.74-.12-1.5-.02-2.16.28.12-.78.22-1.56.28-2.35.03-.65.03-1.32.02-1.98.72.08,1.43.23,2.11.48.21.09.43.13.64.13,1.84,0,3.48-3.07,1.58-4.12-1.4-.52-3.02-.94-4.52-.67-.09-2.4-.04-4.8.75-7.08.48-.85.61-2.16-.18-2.88-2.53-1.43-3.63,2.69-3.68,4.57-.65,6.41.88,12.73.09,19.13-.5,4.33-1.79,8.9-1.49,13.36.39,11.09,9.37,16.98,19.61,18.08h.58c5.09,0,10.21-1.75,13.99-5.19,3.38-2.36,6.69-4.73,9.66-7.6Z"/><path d="M126.27,64c-1.25,1.33-4.82,2.04-4.32,4.22.19.4.5.56.86.56,1.32,0,3.49-2.02,4.44-2.42,1.8-.84,3.42-2.58,3.55-4.63.34-6.24-4.4-7.59-8.42-3.3-1.08.95-2.23,3.45-.35,4.16,1.09.2,1.77-.54,2.46-1.29.62-.67,1.25-1.34,2.2-1.31,1.08.72.84,3.05-.43,4.01Z"/><path d="M121.79,39.7c.12.06.24.09.36.09,1.68,0,3.77-5.8,3.31-7.02-.13-.96-.46-2.01-1.12-2.71-.58-.51-1.09-1.2-1.84-1.41-2.51-1.03-5.05,1.83-5.28,4.19-4.74-.9-6.7-6.17-10.71-8.34-6.05-2.2-11.35,2.23-11.5,8.43-2.9-2.87-6.11-6.13-6.72-10.33.15-2.83-2.84-2.53-3.69-.32-.94,4.69,4.43,10.2,7.44,13.42,1.11,1.17,2.81,2.75,4.44,1.53.84-.55,1.2-1.72.73-2.62-.56-2.01.14-4.71,2.22-5.51,2.13-.04,4.38.02,6.04,1.54,3.99,2.67,7.77,6.12,12.83,6.38,2.22,1.44,4.28-1.63,4.16-3.7,2.26.83,1.05,3.26-.21,4.5-.56.37-1.16,1.33-.48,1.88Z"/><path d="M124.37,49.55c-1.2,1.35-3.4,3.63-1.46,5.3.33.2.68.3,1.02.3,2.61,0,5.2-5.27,4.14-7.31-.32-.99-1.41-.97-2.25-.75-1.61.16-3.53.4-4.89-.74,2.59-1.54,5.06-3.3,7.31-5.3.8-.86,1.67-1.89,1.8-3.1.31-1.47-1.32-2.41-2.48-1.42-2.53,3.1-5.73,5.57-9.29,7.45-1.48.94-1.99,3.18-.46,4.32,1.85,1.38,4.35,1.33,6.56,1.25Z"/><path d="M71.18,48.61c.5.34,1.07.49,1.64.49,1.72,0,3.42-1.41,2.91-3.32-.29-.74-.93-.85-1.59-.87-1.38-.28-2.58-1.14-3.69-1.96,1.48-1.84,1.98-4.27,1.77-6.62-.04-5.57,1.2-11.63,5.32-15.65,1.48-1.83,5.18-2.03,4.7-5.07-.16-1.12-1.36-1.63-2.35-1.21-5.35,1.54-9.73,6.8-10.11,12.37-.39,3.57.65,7.17.4,10.77-.09,1.87-1.74,2.86-2.76,4.21-2.21,3.03,1.18,5.67,3.75,6.86Z"/><path d="M84.86,17.7c1.72,0,3.47-2.31,1.8-3.86-.73-.88-.95-2.05-1.08-3.16,0-1.28-.49-3.03.31-4.05,2.03-.06,4.07.47,6.11,1.01,2.95.78,5.91,1.55,8.91.53,4.31-.58,8.25-2.99,12.43-4.16,6.04-1.1,11.81,2.67,15.7,7.04.95,1.48,1.8,3.02,2.5,4.61.28.63.77,1.07,1.48,1.12,1.88.09,3.62-2.2,2.95-3.99C131.4.25,124.54-.31,112.41.08c-6.03.64-11.39,3.84-17.14,5.47-3.38.69-6.26-1.68-9.42-2.12-5.15.54-4.4,9.92-2.67,13.25.45.73,1.06,1.02,1.68,1.02Z"/><path d="M137.86,20.33c4.53.59,7.49,4.41,8.85,8.5,1.84,6.4-3.48,12.88-1.1,19.12-1.29,1.74-3.83,2.17-4.75,4.2-1.41,2.19-.62,5.28,1.59,6.6.26.16.53.23.8.23,1.59,0,3.07-2.5,1.65-3.66-.26-.19-.5-.42-.67-.69,2.55-1.51,5.76-3.63,5.92-6.88.01-1.23-.69-2.32-1.87-2.66-1.02-1.81-.75-3.8-.41-5.77.71-4.71,2.44-9.88.84-14.57-.57-2.09-1.56-4.05-3.39-5.31-2.41-1.76-6.59-5.21-9.18-2.08-1.1,1.53-.31,3.4,1.71,2.97Z"/><path d="M133.05,72.44c.45,0,.94-.14,1.33-.32,2.6-.54,3.94-2.97,5.71-4.7,2.54-1.88,5.7-3.55,6.85-6.7.35-.97.18-2.5-1.09-2.58-.92-.07-1.68.63-2.1,1.39-.8,1.51-2.12,2.6-3.49,3.58-2.27,1.36-3.54,3.92-5.65,5.47-1.13.68-2.87,1.08-2.8,2.72.03.86.59,1.14,1.24,1.14Z"/><path d="M82.3,57.24c-.17,2.03,1.59,3.73,3.57,3.75.49.07,1.05.14,1.6.14,1.05,0,2.03-.28,2.31-1.48.29-1.66-.96-1.52-2.15-1.63-.93-.1-2.1-1.03-1.85-2.05,1.41-2.93,3.17-6.07,2.79-9.45,0-1.52-1.39-2.72-2.78-1.69-1.83,1.18-.77,3.46-1.21,5.2-.32,2.54-2.24,4.63-2.27,7.21Z"/><path d="M99.58,41.76c-2.04,0-5.09,2.09-3.63,4.31.51.55,1.27.47,1.9.18,1.69-.58,3.57-.34,5.25.18.13.04.26.06.39.06.92,0,1.79-.88,2.1-1.67,1.1-3.14-4.03-3.07-6-3.06Z"/><path d="M98.89,55.56c.21.08.43.12.65.12,1.2,0,2.25-1.21,2.37-2.42.24.06.48.1.72.16.13.03.26.05.39.05.92,0,1.79-.87,2.1-1.66.34-.89.16-2.02-.85-2.32-2.47-.67-5.1-1.1-7.69-.71-1.14.23-2.34.81-2.74,2.01-.53,1.13.23,2.63,1.58,2.31.92-.19,1.86-.25,2.8-.26-.33,1.08-.21,2.22.67,2.72Z"/><path d="M96.5,67.04c-.03-.9-.79-1.58-1.7-1.33-1.61.46-3.29.45-4.94.52-1.75-.02-3.65-.78-5.3.02-1.13.63-2.22,2.09-1.51,3.39.34.56.98.7,1.58.55.88-.16,1.78.07,2.67.12.25-.01.54-.02.85-.03-.78,1.1-.84,2.68.75,3.02.06.01.13.01.2.01,1.44,0,2.53-1.93,2.2-3.14,2.56-.21,5.15-.86,5.21-3.13Z"/><path d="M136.54,77.78c-.34.09-.63.26-.89.48-1.05-1.14-2.18-2.22-3.45-3.18-1.67-1.06-6.34-5.91-7.91-3.19-.53.91-.38,2.2.37,2.98,2.23,1.57,4.8,2.73,6.94,4.5,4.62,4.13,8.53,8.89,11.87,14.14,4.63,9.47,7.41,17.01,18.38,20.73,5.69,2.7,12.16,5.15,16.87,9.49.59.63,1.17.9,1.69.9,1.94,0,3.09-3.63,1.39-5.29-4.25-4.38-10.73-4.98-16.05-7.53-5.77-2.52-10.18-7.29-14.66-11.65-5.56-5.34-8.47-12.73-12.95-18.87,8.16-2.93,13.29-10.37,18.25-17.15,3.9-3.82,7.71-7.83,12.47-10.63,3.24-2.29,7.18-2.4,10.98-1.94,1.19-.03,2.38-.03,3.58-.02,3.29.01,6.59.03,9.8-.78,7.19-2.06,14.39-4.12,21.53-6.38,5.87-2.24,11.88-5.93,18.28-5.83,2.23.89-.84,3.17-2.09,3.59-4.15,1.33-8.23,2.92-12.2,4.74-4.84,2.54-10.14,4.11-14.81,6.94-1.06.55-2.11,1.38-2.55,2.53-1.03,2.4.85,3.88,3.13,3.93,1.34.25,2.97-.17,4.62-.59,2.85-.73,5.73-1.46,7.12,1.31,1.23,4.6-6.83,7.97-10.53,8.37-4.95.45-10.06-.3-14.83,1.49-2.43.71-6.06,2.66-5.39,5.68,1.24,2.17,5.66,3.46,3.8,6.64-1.93,2.92-5.24,2.76-8.52,2.6-3.47-.17-6.91-.34-8.64,3.13-.51,1.35.45,2.59.63,3.89-.56,3.86-5.51,6.03-8.77,7.35-2.47.51-4.89.32-7.5.07-1.49-.16-2.6,2.7-.83,2.9,2.42.29,4.84.17,7.27.25.5.07,1.02.1,1.55.1,7.43,0,17.18-6.24,10.2-13.68,1.88-.39,3.91-.34,5.95-.29,3.35.09,6.71.18,9.43-1.68,2.64-1.78,4.64-5.98,1.58-8.31-1.33-1.08-3.07-1.63-4.1-3.06h0c9.24-4.02,23.35-.9,30.46-8.88,5.62-7.48-4.29-11.26-10.46-11.63,8.51-2.86,17.62-5.33,24.03-12.02,2.03-2.37,6.76-4.85,4.8-8.52-3.2-4.29-9.79-.44-13.73.97-6.45,2.92-11.99,7.91-18.9,9.73-4.23.88-8.62.1-12.87-.34-7.84-.31-15.62,1.44-23.11,3.59-5.08,1.87-8.52,5.99-11.38,10.39-1.43,2.74-2.86,5.5-4.89,7.88-3.86,4.64-9.12,8.45-14.94,10.15Z"/><path d="M153.82,49.05h.11c1.16,0,1.96-1.07,2.42-2.04,2.91-5.06,7.15-9.42,12.02-12.67,3.78-2.29,8.14-2.9,12.17-4.55,9.96-3.46,14.91-14.66,25.34-17.31,4.17,2.97-8.51,11.11-9.46,14.43-1.33,1.86-.12,4.54,2.22,4.6,2.42.2,4.77-.81,7.07-1.43.01.02.03.05.05.07.04.09.07.17.12.26-.65,2.45-3.36,3.35-5.61,3.89-2.58,1.05-5.06,2.14-7.8,2.72-2.02.82-3.77,4.36-1.43,5.75,1.68.67,3.37.04,5.16-.15.55-.12,1.11-.13,1.42.41.69.8,1.9.29,2.48-.35,1.67-1.7-.2-3.72-1.88-4.44,3.35-.95,14.09-9.14,8.75-12.38-1.32-.51-2.69-.16-4.07.19-.94.23-1.88.47-2.81.44-.03.04-.06.08-.09.12,2.24-3.95,5.51-7.16,7.76-11.13,1.43-2.08,2.91-4.91.98-7.17-.8-1.3-2.33-1.71-3.74-1.24-4.57,1.38-7.92,5.11-11.09,8.5-2.61,2.68-5.71,4.72-8.91,6.62-3.75,2.32-7.67,4.35-11.3,6.83-6.92,4.04-14.27,8.09-19.13,14.63-1.15,1.25-3.52,4.65-.76,5.4Z"/><path d="M65.87,93.26c9.13.61,18.04,4.87,26.06,9.1.42.22.95.36,1.48.36.73,0,1.43-.27,1.76-.97.33-1.14-.67-2.06-2.07-2.84.13-.07.25-.15.35-.25.92-.87,1.99-1.58,2.94-2.42,7.58-5.7,16.88-10.5,26.33-12.06,1.99-.3,2.97-3.48.34-3.54-4.25.15-8.44,2.34-12.39,3.89-6.68,3.5-12.64,8.27-18.72,12.72-.27.18-.49.51-.56.84-1.62-.69-3.32-1.24-4.13-1.71-4.15-1.83-9.08-3.65-13.76-4.25-2.88-.41-5.79-.62-8.69-.75-.51-.02-1.11.34-1.02.92.19.95,1.32.92,2.08.96Z"/><path d="M131.95,107.85c2.25-1.59-.01-3.99-2.1-3.35-1.79.73-3.12,2.29-4.82,3.23-5.58,2.94-11.25,6.1-17.33,7.94-7.85,2.38-16.17,2.48-24.29,1.48-7.29-1.43-13.24-6.27-19.83-9.42-2.74-1.05-5.9-4.92-8.83-2.54-1.03,1.03-.39,2.63.74,3.28,6.93,4.81,14.78,8.38,23.04,10.58,3.91,1.41,7.8,2.91,12,3.13.4.03.79.04,1.19.04,7.25,0,13.63-4.21,20.55-5.92,6.96-1.68,13.74-4.34,19.69-8.45Z"/><path d="M57.68,86.31c.85,2.16,1.61,4.5.93,6.83-.19.47-.42.97-.21,1.49.35.91,1.32,1.41,2.27,1.41.72,0,1.42-.28,1.86-.88,2.58-4.56-1.33-9.51-3.06-13.65-.43-1.03-1.66-1.54-2.73-1.28-2.91.97.55,4.3.95,6.08Z"/><path d="M55.41,84.31c-.52-.99-1.76-1.32-2.8-1.2-1.6.1-3.17-.27-4.7-.68-1.61-.35-3.53-1.4-5.36-1.81.09-2.75.24-5.49.06-8.23-.12-.67-.09-1.73-.06-2.89.12,0,.25,0,.37,0,3.17,0,6.33-.8,9.49-1.12.41-.06.75-.19,1.04-.36.36,3.45.57,6.91,1.14,10.37.06.52.49.74.95.74.68,0,1.45-.46,1.38-1.11-.19-2.47-.46-4.85-.22-7.38.1-3.78,1.28-8.65-1.45-11.82-.72-.5-1.58-.58-2.43-.43-3.18.61-6.37,1.04-9.58,1.4-1.47-.03-4.22,1.18-3.24,2.76-1.13.13-2.18,1.02-2.14,2.21.23,5.52.88,10.84.64,16.4,0,.28.11.5.27.69-.58,1.67.52,3.48,1.85,5.02-.77-.31-1.54-.62-2.29-.98-1.07-.47-2.33-.93-3.51-.65-3.79,1.42.85,5.25,2.64,6.37-.59.38-1.4.55-1.64,1.3-.33.93.61,1.64,1.45,1.73.06.01.13.01.2.01.79,0,1.63-.52,1.35-1.42,1.18-.56,1.71-1.68,1.13-2.9,1.73.64,4.01,2.26,5.73.83.74-.74.25-1.9-.55-2.35-.07-.04-.14-.06-.21-.1.04-.34-.17-.71-.46-.94-.98-1.14-2.67-2.47-2.57-4.12,4.13,1.11,8.54,4.18,12.91,2.56.69-.41,1.02-1.16.62-1.91ZM43.78,63.27c2.93-.37,5.83-.84,8.73-1.36.22,1,.38,2,.53,3-.27-.04-.57-.06-.91-.01-3.13.67-6.56.48-9.58,1.47-.06-1.17-.24-2.23-.66-2.93.64.01,1.31-.1,1.89-.17Z"/><path d="M48.86,102.32c-3.64-.21-8.32.07-10.76-3.23,1.63.51,4.54,1.94,5.44-.27.21-2.05-2.5-2.3-3.9-2.9-2.46-1.27-6.59-1.15-6.03,2.13,1.25,5.53,7.68,5.7,12.29,5.98.32-.04.83.02,1.37.09.43.04.88.09,1.31.09.85,0,1.55-.19,1.59-.97-.09-.6-.77-.9-1.31-.92Z"/><path d="M68.49,90.95h.05c6.44,0,19.51-3.59,20.66-5.35.65-.79.19-1.79-.6-2.3-1.19-.81-2.55-.27-3.69.34-4.83,2.2-9.99,3.58-15.31,4.05-1.49.34-4.97-.42-4.59,2.01.12.89,1.47,1.25,3.49,1.25Z"/><path d="M97.91,88.3c-.16,1,.37,2.36,1.43,2.65.12.02.23.03.33.03,2.26,0,2.32-5.18.51-5.95-1.94-.7-2.1,1.98-2.27,3.27Z"/><path d="M157.34,173.09c.58,1.16,2.17.9,3.25.99.08.01.15.01.23.01,1.05,0,2.03-.84,2.4-1.73.14.92.8,1.19,1.57,1.19.72,0,1.53-.24,2.12-.4.49-.1.91-.28,1.28-.52.09,2.25,2.23,3.78,3.54,5.43,6.92,8.61,16.59,14.7,26.6,19.16,8.51,3.06,17.79,3.45,26.77,3.83.69.06,1.37.09,2.05.09,5.05,0,9.98-1.63,14.96-2.3,2.96-.86.91-5.63-1.72-5.21-4.25.69-8.56.69-12.78,1.61-3.47.73-6.83,2.48-10.39,1.27-3.92-.54-7.56-2.34-11.58-2.43-2.94.33-4.32.11-7.21-.14-4.02-1.27-8.05-2.77-11.55-5.25-5.47-4.48-10.5-9.55-14.63-15.32-.52-.94-1.75-2.15-2.75-2.2.32-.55.57-1.18.8-1.86,4.75-14.04,7.6-27.7,26-25.06,9.5,3.4,19.51,1.74,29.06-.52,9.43-3.18,13.64-10.98,14.41-20.49.75-5.33-.24-10.88-3.93-14.96-1.26-1.36-2.51-3.23-4.23-4.05-1.35-1.38-3.98-.02-4.4,1.68-.16.55-.08,1.22.32,1.64.39.86.33,1.83.34,2.75.2,4.35-2.06,7.97-5.11,10.94-2.58,2.97-6.42,4.02-10.27,3.92-3.1-.14-5.84-1.73-8.92-2.17-3.32-1.28-6.92-.99-10.41-.82-5.53.56-10.69,2.37-16.01,4.16-6.92,2.52-11.94,8.35-14.91,14.92-3.21,7.69-6.62,15.56-6.05,24.07.25,1.72-.15,5.03,1.26,6.36-.21.41-.29.89-.11,1.41ZM160.8,151.94c.96-4.15,2.01-8.49,4.91-11.77,4.34-4.25,9.11-8.2,14.45-11.14,3.91-2.34,8.31-1.86,12.65-1.76,3.92.06,8.38.17,12.46.3,6.27-.32,13.02-1.06,18.66-4.06,4.3-2.61,7.97-7.49,8.69-12.6,4.16,4.71,6.56,11.62,3.72,17.46-2.46,4.61-6.65,8.18-10.97,11.03-3.43,2.54-7.63,2.12-11.63,1.88-3.75-.1-7.48-.65-11.24-.56-24.56,2.56-30.04,5.42-37.43,29.39-.68.25-1.39.74-1.7,1.41-.04-.61-.46-1.13-1.46-1.29-.3,0-.61-.02-.92-.04.17-1.61-.71-3.82-.83-5.34-.51-4.3.32-8.61.65-12.91Z"/><path d="M211.87,102.1c-4.42,3.48-8.36,6.97-12.61,10.78-1.99,1.9-4.26,3.47-6.83,4.51-1.57.68-4.25,1.27-4.02,3.45.36.78.95,1.07,1.65,1.07,1.62,0,3.81-1.55,5.05-2.07,7.29-3.83,11.27-11.55,17.88-16.18,6.99-2.7,14.5-4.78,22.06-4.67,6.13.73,11.32,4.22,16.59,7.17-2.09.51-4.21,1.08-5.98,2.34-1.06.86-6.99,4.37-5.25,5.73.52.33,1.32.07,1.69-.38,1.3-1.52,2.86-2.85,4.47-4.09,2.29-2.05,5.48-2.44,8.38-1.63,1.07.81,2.38,1.5,3.72.93,2.27-.72,3.55-3.88,1.05-5.15-3.49-2.18-7.05-4.3-10.91-5.77-6.81-2.19-14.06-3.04-21.2-3-5.83.26-11.73,2.73-15.76,6.96Z"/><path d="M162.18,166.39c.95,0,2.07-.66,2.38-1.55.65-1.32.65-3,.96-4.47.62-3.62,2.14-6.95,3.71-10.24,1.94-4.02,4.18-8.16,7.85-10.94,6.44-2.89,13.38-2.45,20.53-3.51,1.93-.08,4.17-2.54,2.6-4.3-.46-.43-1.13-.59-1.74-.53-2.58.24-5.17.52-7.75.82-3.62.4-7.43.65-10.61,2.61-3.68,2.15-6.43,5.49-9.2,8.68-5.55,6.01-9.32,14-10.19,22.16.13.91.75,1.27,1.46,1.27Z"/><path d="M202.96,149.09c-.6.22-.62.98-.4,1.48.96,2.06,2.09,4.05,2.79,6.23,1.2,3.74,2.43,7.52,2.97,11.43.2,1.81.36,3.9.58,5.76.14,1.33.6,3,1.94,3.58.31.12.58.17.81.17,1.49,0,1.51-2.14.95-3.44-.91-5.51-1.47-11.19-3.99-16.27-1.33-2.81-2.8-5.56-4.27-8.29-.26-.44-.83-.85-1.36-.65Z"/><path d="M248.02,185.59c.43.31.8.43,1.11.43,1.42,0,1.53-2.63-.15-3.34-4.56-2.13-8.36-6.49-13.11-8.7-4.4-2.48-9.26-4-14.22-4.9-2.42-.44-4.87-.99-7.35-.95-.67.03-1.39.12-1.82.66-1.05,1.16.09,3.38,1.55,3.6,5.98-.25,11.37,1.17,17.17,2.74,6.61,1.53,12.25,5.56,16.82,10.46Z"/><path d="M266.74,205.25c-1.49-.19-2.21,1.68-2.57,2.83-1.68-.17-1.94,1.16-1.5,2.38-.91-.44-1.87-.81-2.69-.13-1.22,1.02.4,2.76-.36,3.99-2.77-1.29-3.44-5.11-5.14-7.48-1.87-3.21-4-5.89-7.04-8.25-1.67-1.64-4.11-.85-3.11,1.65.81,1.58,2.56,2.39,3.79,3.61,2.58,2.4,4.29,5.51,5.87,8.61,1.17,2.31,2.99,4.62,5.8,4.63.08.02.16.02.23.02,1.73,0,1.98-2.6,1.75-3.95.54.25,1.08.51,1.6.8,1.2.46,1.71-.38,1.63-1.29.21.06.43.1.65.1.54,0,1.06-.21,1.4-.7.75-1,.6-2.36,1.36-3.34.87-1.25-.28-3.24-1.68-3.48Z"/><path d="M268.32,194.32c-1.83-3.82-5.29-6.51-7.39-10.14-2.1-4.26-4.04-10.49-10.02-9.38-.63-.14-1.26.08-1.82.38-1.79.84,0,4.06,1.67,3.14,1.49-.92,3.72-1.89,5-.05,1.56,3.02,2.58,6.27,3.94,9.39,1.66,3.02,4.86,5.09,5.87,8.57,1.24,2.36.91,6.02,3.04,7.95.36.32.78.47,1.17.47.79,0,1.49-.61,1.43-1.62-.72-3-1.6-5.73-2.88-8.71Z"/><path d="M255.35,217.52c-2.08-1.72-4.76.28-3.49,2.78-.65,1.63.32,3.38.04,5.1-4.05-5.81-8.87-10.95-14.39-15.39-.91-.71-1.45-1.99-2.67-2.2-.48-.08-.85.07-1.12.33.6-.8-.28-2.53-1.43-2.32-.77.13-1.57.13-2.31.36-6.38,1.08-12.83.75-19.22-.14-4.15-.35-8.2-1.73-11.78-3.84-.41-.2-.88-.22-1.28-.06.06-1.26-.97-2.84-2.31-2.79-6.37-.48-12.43-2.92-18.38-5.15-10.69-3.69-18.77-12.15-25.21-21.25-.34-.62-.75-1.5-1.26-2.23.63.07,1.27.08,1.89.11.19.03.37.05.54.05,1.72,0,2.56-1.53,2.56-3.06,0-1.65-1-3.3-2.94-3.01-1.84.5-3.78.53-5.64.07-3.6-.92-7.49-1.28-11.04-2.56-6.05-2.63-10.84-7.03-16.02-11.07-3.28-2.83-6.5-5.81-8.57-9.67-2.08-4.45-4.03-8.96-6.09-13.42-.88-1.53-1.15-3.58-2.56-4.74-1.61-1.05-2.83,1.25-2.27,2.63,1.75,3.85,3.87,7.57,5.68,11.41,2.21,3.77,5,7.16,7.33,10.86,2.9,4.36,5.74,8.92,9.9,12.2,3.87,3.48,9.04,4.7,13.84,6.36,3.31,1.41,6.84,2.16,10.33,3.04-.47.58-.44,1.52-.12,2.17,4.03,7.33,10.9,12.41,17.31,17.53,4.25,3.28,8.06,7.08,12.8,9.78,5.14,2.72,10.85,3.85,16.62,4.39.12.02.24.02.37.02.61,0,1.2-.17,1.81-.18.22-.03.4-.08.56-.16-.42,4.25,11.73,6.11,14.73,6.38.34.01.68.01,1.02.01,6.85,0,13.51-1.21,20.42-1.34.24-.03.43-.12.57-.23-.42.56-.48,1.47-.14,2.13,1.31,2.75,4.29,4.13,6.56,5.98,2.64,2.38,5.03,5.01,7.29,7.75,1.27,1.42,2.07,2.97,3.91,3.98.34.12.64.17.9.17,2.18,0,1.87-3.64,1.63-5.37.21-.07.4-.2.55-.38.1-.14.2-.27.28-.41,2.67.25,2.47-3.48.77-4.62Z"/><path d="M132.23,153.24c-.8-.59-2.21-.78-2.62.57-.4,1.44.95,2.61,1.9,3.52.35.32.83.5,1.29.5.54,0,1.05-.24,1.3-.81.69-1.57-.71-2.95-1.87-3.78Z"/><path d="M23.19,83.33c.19.03.37.06.55.06,4.72,0,6.3-12.49,4.24-15.54-1.01-2.83-5.58-6.84-7.75-3-.16.58.08,1.14.56,1.48,4.91,2.55,4.7,9.41,2.49,13.77-.41.56-.99,1.18-1.15,1.78-.25-.08-.53-.12-.87-.11-2.86.2-5.31.59-8.24.8-.13,0-.28,0-.44,0,2.45-2.85,3.77-7.29,3.82-10.62-.41-2.85-1.31-5.57-3.28-7.75,1.04.05,2.09.08,3.13.18h.17c1.03,0,2.2-.58,2.5-1.61.25-2.41-2.77-1.99-4.68-2.08,1.02-.12,1.69-.91,2.12-1.88.92.34,1.95.54,2.79.91,4.9,1.54,9.55,3.93,14.26,6.19.27.14.59.19.91.19,1.19,0,2.5-.86,2.25-2.12-1.14-1.68-3.67-2.01-5.38-3.05-3.57-1.7-7.13-3.48-10.85-4.86-.92-.3-1.88-.74-2.86-.88.35-1.1.71-2.19,1.1-3.28,7.1,2.17,13.77,5.63,20.48,8.8.17.1.36.15.57.15,1.02,0,2.15-1.24.98-1.92-.8-.34-1.6-.69-2.4-1.01-3.72-1.57-7.47-3.5-10.93-5.65-1.42-.93-2.95-1.91-4.57-2.61,2.2-.59,4.38-1.13,6.64-1.54,1.11.48,2.2,1.05,3.26,1.64.71.4,1.63.94,2.56,1.46.27.14.59.21.91.21,1.19,0,2.51-.91,2.25-2.14-.11-.41-.4-.66-.75-.85-2.01-1.11-3.73-2.04-5.76-3.27-2.72-1.36-5.85.4-8.66.79-1.69.61-5.51.83-6.06,2.84-.02,0-.05,0-.07.01-2.4.45-2.85,3.08-3.56,5.03-.5,1.75-1.48,3.49-1.43,5.32-.04.62.49,1.25,1.11,1.41.02,0,.04,0,.06.01-1.11-.06-2.38-.13-3.26.63-.25.18-.41.39-.53.61-1.41-.02-3.06.62-3.95,1.35-6.2,4.59-8.17,18.07-.38,21.93.68.2,1.34.28,1.96.28.56,0,1.09-.09,1.6-.23.07.17.15.34.28.53.48.44,1.19.57,1.86.57.12,0,.24-.01.36-.01,3.35-.33,6.69-.72,10.03-1.11,1.21-.15,1.92-1,1.99-1.81ZM10.94,75.29c-.36,1.53-.91,2.99-1.36,4.49-.38,1.51-.68,3.51-2.62,3.59-5.55-.55-3.78-17.61,1.54-17.61.12,0,.23.01.34.03-.13.47-.09.97.2,1.43,1.48,2.32,2.18,5.34,1.91,8.07Z"/><path d="M43.64,59.38c.22.06.45.08.69.08,2.13,0,4.81-1.97,3.39-4.13-1.02-1.08-1.73-3.3-3.56-2.85-.94-2.39-4.66-.96-5.61.78-1.46,3.15,2.32,5.78,5.09,6.12ZM42.81,54.39c.03.06.07.11.11.17.29.39.58.78.86,1.18-.51-.27-.92-.74-1.05-1.31.02-.02.05-.03.08-.04Z"/><path d="M33.92,92.38c-.16-.59-.74-.84-1.24-1.1-4.07-2.22-8.45-3.87-12.81-5.42-3.29-1.5-6.57,2.29-1.95,3.41,4.4,1.42,8.61,2.99,12.83,5.06.28.13.6.19.92.19,1.2,0,2.51-.85,2.27-2.14Z"/><path d="M7.15,69.54c-1.36.19-2.14,1.4-2.51,2.63-.67,2.01-.64,4.18-.56,6.28.16.98.98,1.4,1.87,1.4,1.25,0,2.64-.82,2.58-2.11-.14-2.12.1-4.36.78-6.49.31-1.24-1.12-1.92-2.17-1.71Z"/></svg>